<?xml version="1.0" encoding="UTF-8"?>
<svg version="1.1" xmlns="http://www.w3.org/2000/svg"
 width="92pt" height="28pt" viewBox="0 0 92 28">
    <title>Artboard</title>
    <desc>Created with Sketch.</desc>

    <g id="Artboard" stroke="none" stroke-width="1" fill="none" fill-rule="evenodd">
        <path d="M8088 3401 l-58 -24 0 -359 0 -358 60 0 60 0 0 176 c0 140 3 183 16
        209 36 76 164 78 206 3 8 -15 14 -85 16 -205 l4 -183 54 0 54 0 0 196 c0 220
        -7 261 -57 310 -61 62 -187 68 -265 13 l-27 -20 -3 134 -3 133 -57 -25z"/>
        <path d="M5940 3405 c-94 -29 -174 -133 -201 -263 -16 -80 -7 -223 20 -293 26
        -68 88 -142 145 -171 57 -30 165 -30 223 0 90 47 133 136 133 279 l0 83 -125
        0 -125 0 0 -55 0 -55 66 0 67 0 -7 -41 c-14 -85 -49 -122 -116 -122 -96 0
        -152 85 -164 247 -13 185 94 332 203 278 20 -9 45 -31 57 -49 l21 -31 51 29
        c29 16 52 34 52 40 0 6 -24 34 -53 63 -43 44 -63 56 -106 65 -65 14 -84 13
        -141 -4z"/>
        <path d="M2348 3133 c-3 -243 -5 -282 -21 -310 -20 -37 -42 -52 -89 -57 -47
        -5 -83 10 -118 50 l-30 34 -50 -25 -51 -26 18 -30 c45 -77 152 -127 246 -115
        63 9 140 47 164 83 46 68 47 75 51 381 l4 292 -61 0 -60 0 -3 -277z"/>
        <path d="M2907 3209 c-21 -5 -60 -18 -87 -30 l-48 -21 14 -39 c20 -60 20 -60
        77 -34 36 17 70 25 109 25 74 0 107 -25 115 -89 6 -41 4 -44 -13 -37 -55 22
        -127 29 -177 17 -107 -24 -157 -77 -157 -170 0 -163 162 -226 343 -133 4 2 7
        -6 7 -17 0 -19 6 -21 55 -21 l55 0 0 208 c0 228 -8 266 -64 310 -47 36 -148
        50 -229 31z m152 -310 c27 -10 31 -15 31 -49 0 -32 -6 -43 -32 -61 -38 -28
        -130 -37 -168 -17 -51 27 -49 101 4 126 28 14 125 15 165 1z"/>
        <path d="M3720 3211 c-43 -13 -89 -40 -99 -58 -8 -15 -10 -11 -11 20 l0 37
        -55 0 -55 0 0 -275 0 -275 60 0 60 0 0 174 c0 97 5 186 11 204 28 82 167 89
        211 10 8 -15 14 -85 16 -205 l4 -183 54 0 54 0 0 196 c0 125 -4 211 -12 237
        -28 92 -140 148 -238 118z"/>
        <path d="M4396 3206 c-61 -23 -88 -48 -121 -111 -27 -54 -30 -67 -30 -159 0
        -88 3 -108 26 -157 15 -31 41 -67 60 -82 68 -51 179 -59 233 -16 l26 20 0 -30
        c0 -75 -34 -107 -133 -124 l-65 -11 32 -48 31 -49 50 6 c67 8 135 43 161 82
        35 52 44 141 44 421 l0 262 -60 0 c-47 0 -60 -3 -60 -15 0 -19 0 -19 -40 1
        -45 23 -108 27 -154 10z m160 -122 c32 -22 35 -39 32 -168 -3 -105 -4 -110
        -30 -129 -34 -25 -104 -27 -140 -3 -56 36 -78 183 -40 256 34 64 116 84 178
        44z"/>
        <path d="M7500 3211 c-43 -13 -89 -40 -99 -58 -8 -15 -10 -11 -11 20 l0 37
        -55 0 -55 0 0 -275 0 -275 60 0 60 0 0 174 c0 97 5 186 11 204 28 82 167 89
        211 10 8 -15 14 -85 16 -205 l4 -183 54 0 54 0 0 196 c0 125 -4 211 -12 237
        -28 92 -140 148 -238 118z"/>
        <path d="M8959 3206 c-120 -32 -191 -159 -174 -310 19 -175 144 -270 309 -236
        30 6 73 25 96 41 l42 31 -37 38 -37 38 -35 -24 c-43 -29 -111 -32 -153 -7 -27
        15 -70 78 -70 102 0 8 56 11 185 11 l185 0 0 63 c0 140 -61 233 -169 256 -64
        13 -83 13 -142 -3z m141 -111 c17 -9 30 -17 30 -19 0 -2 7 -20 15 -40 l15 -36
        -130 0 c-106 0 -130 3 -130 14 0 20 49 76 74 86 34 14 95 11 126 -5z"/>
        <path d="M9709 3206 c-120 -32 -191 -159 -174 -310 19 -175 144 -270 309 -236
        30 6 73 25 96 41 l42 31 -37 38 -37 38 -35 -24 c-43 -29 -111 -32 -153 -7 -27
        15 -70 78 -70 102 0 8 56 11 185 11 l185 0 0 63 c0 140 -61 233 -169 256 -64
        13 -83 13 -142 -3z m141 -111 c17 -9 30 -17 30 -19 0 -2 7 -20 15 -40 l15 -36
        -130 0 c-106 0 -130 3 -130 14 0 20 49 76 74 86 34 14 95 11 126 -5z"/>
        <path d="M6520 3022 c0 -221 11 -273 65 -321 72 -63 199 -66 266 -5 18 16 19
        16 19 -9 0 -26 2 -27 60 -27 l60 0 0 275 0 275 -58 0 -58 0 -1 -179 c-1 -192
        -9 -227 -55 -252 -28 -15 -99 -15 -128 1 -41 22 -50 66 -50 255 l0 175 -60 0
        -60 0 0 -188z"/>
    </g>
</svg>
